<?xml version="1.0" encoding="utf-8"?>
<!-- Generator: Adobe Illustrator 27.5.0, SVG Export Plug-In . SVG Version: 6.00 Build 0)  -->
<svg version="1.1" xmlns="http://www.w3.org/2000/svg" xmlns:xlink="http://www.w3.org/1999/xlink" x="0px" y="0px"
	 viewBox="0 0 500 500" style="enable-background:new 0 0 500 500;" xml:space="preserve">
<g id="BACKGROUND">
	<rect style="fill:#FFFFFF;" width="500" height="500"/>
</g>
<g id="OBJECTS">
	<ellipse style="fill:#A7DDEA;" cx="240.096" cy="466.872" rx="201.27" ry="5.596"/>
	<path style="fill:#BDF1FF;" d="M405.861,125.71l29.356,139.423c11.526,54.743-19.721,108.099-69.44,118.568l-176.07,37.073
		c-49.719,10.469-99.824-25.758-111.351-80.501L49,200.85c-3.502-16.63-3.058-33.131,0.657-48.342
		c3.401-13.949,9.551-26.814,17.922-37.689c12.548-16.313,30.09-28.168,50.855-32.54l176.07-37.073
		c17.952-3.78,35.951-1.471,52.163,5.588c6.383,2.781,12.487,6.299,18.203,10.474C384.874,75.87,400.132,98.501,405.861,125.71z"/>
	<path style="fill:#D9FAFF;" d="M136.46,171.735c8.156,38.735-16.635,76.75-55.37,84.906c-6.759,1.423-13.499,1.844-20.057,1.36
		L49,200.85c-3.502-16.63-3.058-33.131,0.657-48.342c3.401-13.949,9.551-26.814,17.922-37.689
		C100.276,115.36,129.437,138.38,136.46,171.735z"/>
	<path style="fill:#D9FAFF;" d="M405.861,125.71l13.686,64.997c-1.082,0.275-2.173,0.528-3.273,0.76
		c-43.79,9.22-86.766-18.806-95.987-62.596c-6.296-29.901,4.78-59.424,26.381-78.077c6.383,2.781,12.487,6.299,18.203,10.474
		C384.874,75.87,400.132,98.501,405.861,125.71z"/>
	
		<ellipse transform="matrix(0.9777 -0.2099 0.2099 0.9777 -67.6262 40.187)" style="fill:#D9FAFF;" cx="155.555" cy="338.76" rx="39.962" ry="39.962"/>
	
		<ellipse transform="matrix(0.421 -0.907 0.907 0.421 -126.1863 326.7279)" style="fill:#D9FAFF;" cx="192.841" cy="262.209" rx="21.77" ry="21.77"/>
	
		<ellipse transform="matrix(0.6932 -0.7208 0.7208 0.6932 -226.4682 164.5463)" style="fill:#D9FAFF;" cx="80.043" cy="348.284" rx="21.77" ry="21.77"/>
	
		<ellipse transform="matrix(0.1105 -0.9939 0.9939 0.1105 126.6031 655.4457)" style="fill:#D9FAFF;" cx="429.473" cy="256.995" rx="28.801" ry="28.801"/>
	<path style="fill:#D9FAFF;" d="M392.71,247.987c1.271,6.037-2.592,11.962-8.63,13.233c-6.037,1.271-11.962-2.593-13.233-8.63
		c-1.271-6.037,2.592-11.962,8.63-13.233C385.514,238.086,391.439,241.95,392.71,247.987z"/>
	<path style="fill:#D9FAFF;" d="M146.832,133.3c0.891,4.23-1.816,8.381-6.046,9.272c-4.23,0.891-8.381-1.816-9.272-6.046
		c-0.891-4.23,1.816-8.381,6.046-9.272C141.79,126.363,145.941,129.07,146.832,133.3z"/>
	<path style="fill:#D9FAFF;" d="M396.873,277.642c0.636,3.019-1.296,5.981-4.315,6.617c-3.019,0.636-5.981-1.296-6.617-4.315
		c-0.636-3.019,1.296-5.981,4.315-6.617C393.275,272.691,396.238,274.623,396.873,277.642z"/>
	<path style="fill:#D9FAFF;" d="M203.615,299.219c0.636,3.019-1.296,5.981-4.315,6.617c-3.019,0.636-5.981-1.296-6.617-4.315
		c-0.636-3.019,1.296-5.981,4.315-6.617C200.017,294.268,202.979,296.2,203.615,299.219z"/>
	<g>
		<g>
			<polygon style="fill:#020B2A;" points="302.236,352.777 302.233,352.785 302.23,352.79 302.299,352.79 			"/>
			<path style="fill:#020B2A;" d="M316.398,100.774c0.031,0.073,0.072,0.127,0.115,0.176c-2.786,4.541-6.586,8.442-11.056,11.341
				c-1.12,0.726-2.28,1.391-3.474,1.989c-1.32,0.66-2.686,1.288-4.125,1.638c-2.714,0.661-5.594-0.036-7.84-1.659
				c-1.208-0.873-2.202-2.041-2.954-3.322c-0.651-1.109-1.075-2.308-1.43-3.534c0.111-0.079,0.191-0.203,0.187-0.383
				c-0.02-1.06,0.287-2.088,0.34-3.143c0.027-0.538,0.02-1.079,0.003-1.618c-0.013-0.395,0.003-0.828-0.046-1.238
				c0.264,0.142,0.526,0.287,0.791,0.426c1.065,0.558,2.152,1.08,3.283,1.493c2.395,0.875,4.912,1.074,7.403,0.496
				c2.642-0.613,5.144-1.835,7.621-2.913c1.238-0.539,2.47-1.095,3.674-1.705c0.532-0.27,1.052-0.565,1.583-0.837
				c0.472-0.242,0.955-0.47,1.386-0.781c0.415-0.299,0.789-0.66,1.036-1.114c0.293-0.54,0.46-1.167,0.605-1.76
				c0.091-0.37,0.167-0.745,0.238-1.121c0.113,0.585,0.253,1.165,0.419,1.74C314.737,96.95,315.59,98.857,316.398,100.774z"/>
			<path style="fill:#020B2A;" d="M275.99,59.853c-0.072-0.771-0.019-1.525,0.089-2.29c0.102-0.723,0.179-1.452,0.383-2.155
				c0.752-2.587,2.793-4.655,4.803-6.349c2.045-1.724,4.412-3.116,6.906-4.08c2.666-1.031,5.505-1.573,8.363-1.575
				c2.872-0.002,5.697,0.548,8.392,1.529c4.006,1.459,8.561,2.931,11.245,6.472c0.684,0.903,1.238,1.924,1.588,3.003
				c0.443,1.368,0.536,2.812,0.551,4.24c0.034,3.073-0.03,6.156-0.286,9.219c-0.031,0.371-0.049,0.748-0.111,1.115
				c-0.052,0.306-0.131,0.607-0.195,0.911l-0.106-0.02c-0.947-0.085-1.818,0.412-2.453,1.078c-0.124,0.13-0.242,0.27-0.355,0.415
				c-0.024-0.765-0.094-1.527-0.174-2.288c-0.247-2.33-0.584-4.651-1.064-6.945c-0.33-1.575-0.994-3.217-2.628-3.8
				c-0.956-0.341-2.05-0.232-3.032-0.085c-1.095,0.164-2.163,0.469-3.23,0.76c-1.066,0.291-2.13,0.558-3.229,0.695
				c-1.233,0.154-2.469,0.285-3.707,0.386c-2.482,0.203-4.976,0.294-7.465,0.225c-1.225-0.034-2.45-0.108-3.67-0.227
				c-1.245-0.122-2.521-0.184-3.749-0.431c-0.552-0.111-1.105-0.276-1.673-0.268c-0.531,0.007-1.043,0.175-1.486,0.467
				c-0.719,0.475-1.183,1.189-1.468,1.99c-0.276,0.776-0.37,1.609-0.446,2.424c-0.098,1.053-0.183,2.105-0.186,3.163
				c-0.006,1.969,0.181,3.929,0.34,5.89l-0.077-0.133c-0.246-0.341-0.584-0.591-0.991-0.674c-0.163-1.195-0.151-2.415-0.116-3.617
				c0.044-1.5,0.026-2.972-0.157-4.464C276.408,62.905,276.134,61.387,275.99,59.853z"/>
			<path style="fill:#020B2A;" d="M277.716,81.188c-0.518-0.916-0.841-1.924-1.088-2.942c-0.188-0.775-0.345-1.565-0.441-2.357
				c-0.08-0.66-0.239-1.569,0.082-2.189c0.057-0.111,0.131-0.181,0.211-0.221c0.109,0.106,0.272,0.111,0.383,0.033
				c0.063,0.039,0.123,0.092,0.178,0.16c0.115,0.144,0.201,0.318,0.283,0.482c0.035,0.07,0.066,0.134,0.111,0.198
				c0.035,0.05,0.132,0.221,0.042,0.05c0.127,0.242,0.369,0.261,0.557,0.162l0.009,0.112c-0.104,0.045-0.187,0.148-0.161,0.291
				c0.129,0.695,0.177,1.396,0.271,2.096c0.094,0.696,0.186,1.392,0.27,2.089c0.14,1.156,0.267,2.313,0.404,3.469
				C278.448,82.151,278.016,81.72,277.716,81.188z"/>
			<path style="fill:#020B2A;" d="M285.266,99.501c-0.789-0.422-1.481-0.864-2.061-1.559c-0.511-0.613-0.898-1.344-1.188-2.084
				c-0.654-1.664-0.939-3.456-1.168-5.221c-0.112-0.867-0.21-1.736-0.327-2.603c-0.148-1.095-0.349-2.182-0.505-3.277
				c-0.359-2.532-0.571-5.108-1.084-7.618c0.15-0.076,0.263-0.218,0.258-0.44c-0.058-2.377-0.361-4.738-0.501-7.11
				c-0.118-2.014-0.079-4.053,0.199-6.055c0.207-1.49,0.91-3.393,2.776-3.085c0.558,0.092,1.101,0.235,1.663,0.31
				c0.577,0.077,1.156,0.141,1.735,0.199c1.184,0.118,2.368,0.238,3.557,0.307c2.379,0.137,4.767,0.115,7.145-0.027
				c1.186-0.071,2.37-0.171,3.552-0.295c1.125-0.118,2.266-0.223,3.378-0.438c2.061-0.4,4.048-1.254,6.155-1.407
				c0.825-0.06,1.713-0.041,2.402,0.476c0.547,0.41,0.869,1.06,1.08,1.694c0.298,0.895,0.444,1.84,0.614,2.764
				c0.219,1.186,0.41,2.376,0.573,3.572c0.229,1.684,0.548,3.456,0.412,5.159c-0.026,0.324-0.074,0.651-0.189,0.956
				c-0.11,0.293,0.205,0.518,0.461,0.477c0.233,0.039,0.495-0.061,0.561-0.334c0.296-1.22,1.237-2.989,2.707-2.944
				c0.182,0.006,0.355,0.049,0.483,0.126l0.117,0.075l0.004,0.002l0.032,0.033l0.113,0.117l0.021,0.022l0.025,0.041
				c0.223,0.346,0.345,0.794,0.392,1.205c0.131,1.133-0.011,2.298-0.195,3.409c-0.208,1.251-0.445,2.521-0.772,3.745
				c-0.279,1.044-0.689,2.039-1.422,2.848c-0.519,0.573-1.134,1.036-1.722,1.528c-0.004-0.098-0.002-0.196-0.012-0.294
				c-0.039-0.387-0.109-0.798-0.346-1.119c-0.163-0.221-0.435-0.326-0.689-0.181c-0.217,0.124-0.342,0.471-0.181,0.689
				c0.18,0.245,0.206,0.608,0.218,0.934c0.018,0.465-0.013,0.931-0.046,1.394c-0.076,1.068-0.064,2.138-0.15,3.206
				c-0.102,1.265-0.285,2.525-0.492,3.777c-0.101,0.608-0.216,1.214-0.373,1.81c-0.136,0.518-0.274,1.099-0.596,1.538
				c-0.562,0.768-1.583,1.109-2.387,1.55c-1.137,0.623-2.305,1.186-3.486,1.72c-1.171,0.529-2.353,1.031-3.534,1.537
				c-1.217,0.521-2.436,1.043-3.697,1.45c-1.227,0.396-2.49,0.682-3.783,0.716c-1.157,0.031-2.304-0.124-3.419-0.43
				C289.336,101.75,287.302,100.59,285.266,99.501z"/>
			<path style="fill:#020B2A;" d="M220.761,254.369c0.041-0.136,0.074-0.274,0.097-0.414c0.015-0.088,0.032-0.178,0.033-0.267
				c0.001-0.115-0.037-0.2-0.095-0.275c0.84-2.214,1.506-4.516,2.095-6.795c0.727-2.812,1.256-5.688,1.391-8.593
				c0.033-0.706,0.037-1.417,0.132-2.118c0.097-0.716,0.336-1.378,0.591-2.049c0.512-1.346,0.778-2.736,1.02-4.151
				c0.518-3.03,1.036-6.061,1.552-9.091c1.033-6.061,2.065-12.123,3.1-18.184c0.993-5.816,1.926-11.671,3.671-17.32
				c1.546-5.002,3.765-9.892,7.099-13.968c0.412-0.504,0.84-0.994,1.279-1.474c0.053-0.057,0.086-0.118,0.109-0.18
				c0.69,0.575,1.457,1.052,2.27,1.432c1.941,0.907,4.05,1.367,6.139,1.787c2.428,0.488,4.933,0.861,7.408,0.537
				c0.613-0.08,1.216-0.199,1.811-0.366c0.179-0.05,0.282-0.165,0.331-0.299c0.045,0.07,0.078,0.134,0.076,0.191
				c-0.096,0.036-0.187,0.096-0.255,0.208c-1.197,1.973-1.758,4.228-2.174,6.476c-0.435,2.347-0.833,4.692-1.396,7.013
				c-1.128,4.656-2.671,9.204-4.487,13.635c-1.833,4.474-3.95,8.828-6.206,13.103c-2.257,4.277-4.636,8.484-7.065,12.665
				c-1.194,2.056-2.511,4.087-3.37,6.314c-0.892,2.311-0.975,4.817-0.502,7.231c0.117,0.598,0.285,1.181,0.48,1.758
				c0.018,0.054,0.045,0.098,0.076,0.135c-3.519,2.914-7.004,5.868-10.435,8.885c-1.623,1.427-3.229,2.874-4.832,4.324
				C220.724,254.467,220.746,254.419,220.761,254.369z"/>
			<path style="fill:#020B2A;" d="M197,409.841c-0.078,2.023-0.229,4.21-1.402,5.934c-0.979,1.44-2.569,2.39-4.206,2.902
				c-2.033,0.637-4.196,0.606-6.297,0.403c-2.315-0.224-4.617-0.595-6.924-0.892c-2.323-0.299-4.648-0.583-6.975-0.852
				c-2.283-0.264-4.588-0.54-6.888-0.343c-2.14,0.183-4.178,0.825-6.199,1.517c-1.97,0.674-3.964,1.401-6.043,1.646
				c-4.084,0.482-8.141-0.74-11.72-2.646c-1.782-0.949-3.575-2.043-5.11-3.362c-1.365-1.172-2.673-2.958-2.116-4.861
				c0.535-1.829,2.627-2.541,4.328-2.701c1.106-0.104,2.221-0.076,3.33-0.115c1.061-0.038,2.121-0.109,3.175-0.236
				c2.134-0.257,4.227-0.733,6.203-1.593c2.01-0.874,3.801-2.158,5.583-3.415c3.835-2.706,7.675-5.405,11.485-8.147
				c0.577-0.415,1.147-0.839,1.719-1.261c0.183,0.12,0.421,0.136,0.611-0.078l2.757-3.095c0.354-0.398,0.724-0.907,1.258-1.064
				c0.515-0.151,1.072,0.055,1.498,0.345c0.473,0.322,0.843,0.794,1.184,1.247c0.38,0.506,0.763,1.014,1.08,1.563
				c0.518,0.897,0.708,1.915,0.6,2.943c-0.055,0.529-0.204,1.063-0.417,1.549c-0.115,0.263-0.259,0.511-0.406,0.758
				c-0.15,0.251-0.294,0.54-0.485,0.762c-0.287,0.333,0.148,0.768,0.482,0.482c0.22-0.188,0.453-0.349,0.639-0.574l0.071-0.095
				c1.83,2.076,4.293,3.567,6.964,4.279c1.326,0.353,2.715,0.52,4.087,0.47c1.379-0.05,2.884-0.257,4.059-1.035
				c1.17-0.774,1.752-2.01,2.083-3.326C196.484,401.077,197.169,405.46,197,409.841z"/>
			<path style="fill:#020B2A;" d="M210.113,330.63c0.007,3.233-0.258,6.46-0.835,9.642c-0.581,3.203-1.472,6.332-2.612,9.379
				c-1.171,3.131-2.527,6.19-3.679,9.329c-2.264,6.17-3.945,12.537-5.351,18.953c-0.71,3.241-1.35,6.498-1.963,9.759
				c-0.301,1.606-0.596,3.213-0.889,4.821c-0.276,1.518-0.463,3.091-0.897,4.574c-0.19,0.65-0.463,1.296-0.929,1.799
				c-0.456,0.492-1.057,0.809-1.692,1.007c-1.293,0.402-2.713,0.443-4.054,0.322c-2.664-0.241-5.282-1.336-7.317-3.072
				c-0.499-0.425-0.961-0.889-1.391-1.383c-0.042-0.049-0.089-0.076-0.135-0.103c0.221-0.465,0.386-0.957,0.477-1.464
				c0.213-1.191,0.093-2.416-0.394-3.527c-0.294-0.67-0.726-1.257-1.161-1.841c-0.4-0.538-0.803-1.09-1.322-1.521l-0.001-0.001
				l0.017-0.081c0.023-4.743,0.047-9.486,0.07-14.23l0.07-14.16c0.023-4.735-0.016-9.475,0.09-14.209
				c0.052-2.334,0.209-4.659,0.551-6.97c0.339-2.295,0.796-4.571,1.234-6.848c0.442-2.3,0.892-4.598,1.322-6.9
				c0.2-1.069,0.379-2.145,0.61-3.208c0.183-0.844,0.408-1.7,0.872-2.438c0.096-0.152,0.206-0.289,0.323-0.422
				c-0.098,0.823,0.312,1.647,0.869,2.288c0.72,0.827,1.689,1.444,2.618,2.01c1.842,1.123,3.858,1.971,5.939,2.535
				c4.177,1.132,8.665,1.15,12.847,0.032c1.187-0.317,2.344-0.731,3.467-1.228c0.873-0.386,1.765-0.818,2.572-1.351
				C209.805,324.95,210.107,327.765,210.113,330.63z"/>
			<path style="fill:#020B2A;" d="M232.311,299.968c-0.73,0.648-1.468,1.286-2.216,1.914c-1.49,1.252-3.015,2.463-4.573,3.629
				c-3.126,2.339-6.382,4.505-9.747,6.485c-0.942,0.555-1.893,1.093-2.849,1.625c-0.924,0.514-1.868,0.995-2.764,1.557
				c-0.253,0.035-0.414,0.242-0.438,0.492c-0.09,0.919-0.176,1.838-0.248,2.758c-0.057,0.724-0.151,1.479-0.077,2.207
				c-0.081,0.066-0.133,0.163-0.116,0.295l0.008,0.059c-0.835,0.455-1.636,0.96-2.5,1.366c-0.908,0.427-1.847,0.784-2.806,1.08
				c-1.916,0.592-3.903,0.932-5.907,1.016c-4.006,0.169-8.055-0.657-11.627-2.493c-0.999-0.514-1.988-1.096-2.881-1.78
				c-0.832-0.637-1.805-1.647-1.499-2.788c0.025-0.093,0.01-0.177-0.023-0.25c0.091-0.667,0.125-1.339,0.174-2.013
				c0.06-0.813,0.12-1.626,0.19-2.438c0.144-1.667,0.326-3.33,0.53-4.991c0.404-3.296,0.947-6.575,1.622-9.826
				c0.318-1.529,0.575-3.156,1.263-4.572c0.64-1.317,1.642-2.395,2.668-3.421c2.38-2.38,4.791-4.73,7.187-7.094l8.152-8.045
				c0.851,1.029,2.285,1.732,3.363,2.387c2.191,1.333,4.35,2.721,6.472,4.162c4.226,2.87,8.309,5.949,12.228,9.227
				c2.908,2.432,5.726,4.972,8.448,7.611C233.652,298.722,232.993,299.361,232.311,299.968z"/>
			<path style="fill:#020B2A;" d="M318.167,422.444c0.695,1.03,1.363,2.089,1.826,3.241c0.591,1.469,0.758,3.023,0.515,4.588
				c-0.25,1.607-0.811,3.148-1.371,4.668c-0.575,1.563-1.129,3.124-1.509,4.748c-0.77,3.292-1.007,6.684-1.091,10.054
				c-0.021,0.85-0.033,1.701-0.041,2.551c-0.007,0.783,0.033,1.593-0.167,2.358c-0.367,1.403-1.71,2.148-2.891,2.804
				c-5.54,3.075-12.119,4.594-18.353,2.944c-1.505-0.399-2.959-0.971-4.317-1.735c-0.532-0.299-1.199-0.652-1.412-1.267
				c-0.124-0.357-0.063-0.769-0.016-1.135c0.056-0.439,0.142-0.875,0.243-1.306c0.38-1.619,1.012-3.164,1.647-4.697
				c0.639-1.542,1.272-3.085,1.872-4.642c1.212-3.146,2.299-6.353,3.019-9.65c0.358-1.639,0.618-3.303,0.764-4.974
				c0.073-0.834,0.106-1.673,0.109-2.511c0.003-0.802-0.069-1.647,0.117-2.435c0.098-0.415,0.323-0.83,0.653-1.115
				c0.133,0.282,0.255,0.568,0.334,0.871c0.103,0.396,0.664,0.222,0.601-0.166c-0.062-0.385-0.182-0.753-0.31-1.117
				c0.163-0.221,0.058-0.58-0.213-0.612c-0.056-0.167-0.11-0.335-0.154-0.507c-0.18-0.699-0.079-1.342,0.54-1.781
				c0.664-0.471,1.525-0.495,2.309-0.494c0.922,0,1.846,0.036,2.766,0.097c1.799,0.119,3.587,0.361,5.353,0.724
				c0.885,0.182,1.764,0.393,2.635,0.634c0.684,0.189,1.382,0.376,2.001,0.733c0.654,0.377,1.082,0.927,1.069,1.708
				c-0.016,0.938-0.415,1.83-0.457,2.771c-0.03,0.672,1.015,0.671,1.045,0c0.014-0.324,0.072-0.641,0.141-0.956
				c0.186,0.176,0.471,0.229,0.686-0.023C317.202,425.536,317.88,424.041,318.167,422.444z"/>
			<path style="fill:#020B2A;" d="M327.635,354.726c0.163,2.408,0.011,4.848-0.083,7.257c-0.105,2.696-0.269,5.397-0.662,8.068
				c-0.389,2.639-1.037,5.226-1.73,7.799c-1.405,5.218-2.714,10.454-3.89,15.729c-1.179,5.288-2.264,10.596-3.345,15.905
				c-0.531,2.609-1.107,5.248-0.904,7.927c0.101,1.327,0.33,2.652,0.251,3.986c-0.068,1.145-0.401,2.278-0.948,3.285
				c-0.189,0.348-0.41,0.674-0.646,0.989c0.036-0.214,0.061-0.43,0.065-0.649c0.014-0.831-0.322-1.619-0.955-2.162
				c-0.595-0.511-1.327-0.817-2.068-1.051c-0.929-0.294-1.881-0.529-2.832-0.74c-1.973-0.438-3.981-0.731-5.997-0.877
				c-1.004-0.073-2.011-0.107-3.018-0.096c-0.917,0.01-1.888,0.087-2.678,0.603c-0.25,0.163-0.463,0.361-0.642,0.582
				c-0.037-0.512-0.03-1.025,0.068-1.523c0.208-1.055,0.874-1.815,1.464-2.679c1.198-1.755,1.376-3.919,1.414-5.983
				c0.088-4.804,0.107-9.609,0.159-14.414c0.052-4.798,0.214-9.614-0.037-14.408c-0.125-2.383-0.34-4.76-0.425-7.146
				c-0.084-2.36-0.078-4.723,0.02-7.083c0.195-4.719,0.753-9.42,1.675-14.052c0.056-0.283,0.098-0.575,0.176-0.853
				c0.024-0.084,0.053-0.153,0.094-0.23l0.07-0.119c-0.031-0.008-0.07-0.02-0.13-0.046l0.136,0.033
				c0.013-0.05,0.074-0.007,0.063,0.013l0.046-0.006c0.003,0.048,0.017,0.097,0.047,0.142c0.905,1.38,2.486,2.339,3.976,2.983
				c1.572,0.679,3.245,1.071,4.954,1.176c3.672,0.226,7.322-0.928,10.495-2.713c1.456-0.819,3.184-1.784,4.011-3.303
				c0.242-0.443,0.375-0.916,0.462-1.402C327.151,351.208,327.514,352.947,327.635,354.726z"/>
			<path style="fill:#020B2A;" d="M326.675,330.6c-0.187,4.067-0.447,8.132-0.778,12.19c-0.164,2.003-0.339,4.006-0.544,6.005
				c-0.087,0.846-0.259,1.646-0.82,2.312c-0.519,0.617-1.186,1.081-1.857,1.516c-2.98,1.932-6.416,3.324-10.001,3.435
				c-1.796,0.056-3.594-0.226-5.279-0.854c-0.829-0.309-1.624-0.714-2.369-1.192c-0.513-0.329-0.987-0.708-1.464-1.084
				c0-0.092-0.014-0.186-0.054-0.276c-1.777-3.93-2.928-8.161-3.371-12.453c-0.231-2.239-0.163-4.523-0.641-6.733
				c-0.472-2.181-1.417-4.236-2.001-6.389c-0.328-1.209-0.591-2.437-0.79-3.674c-0.201-1.253-0.376-2.536-0.471-3.8l-0.012-0.043
				c0.559,0.066,1.118,0.131,1.677,0.187c2.789,0.277,5.589,0.438,8.387,0.6c2.654,0.154,5.311,0.277,7.97,0.258
				c4.304-0.031,8.654-0.446,12.76-1.746C326.921,322.776,326.855,326.688,326.675,330.6z"/>
			<path style="fill:#020B2A;" d="M337.642,255.204c0.574,2.19,0.736,4.388,0.597,6.645c-0.141,2.296-0.502,4.576-0.812,6.853
				c-0.312,2.291-0.624,4.582-0.936,6.873c-0.63,4.627-1.26,9.254-1.89,13.88c-0.63,4.624-1.274,9.246-1.881,13.873
				c-0.3,2.285-0.555,4.587-0.484,6.895c0.034,1.109,0.221,2.202,0.271,3.309c0.041,0.898-0.076,1.843-0.728,2.518
				c-0.056,0.057-0.118,0.112-0.182,0.165c-0.149-0.162-0.382-0.248-0.632-0.117c-4.613,2.414-9.824,3.255-14.979,3.423
				c-2.639,0.086-5.281,0.006-7.917-0.127c-2.721-0.138-5.443-0.298-8.158-0.518c-2.751-0.222-5.498-0.531-8.206-1.076
				c-1.348-0.271-2.685-0.6-4-1.003c-1.252-0.383-2.586-0.778-3.726-1.435c-0.523-0.301-0.941-0.692-1.239-1.22
				c-0.316-0.561-0.498-1.186-0.686-1.798c-0.41-1.335-0.762-2.687-1.076-4.048c-0.63-2.727-1.102-5.487-1.572-8.245
				c-0.476-2.798-0.94-5.602-1.577-8.368c-0.314-1.36-0.665-2.711-1.071-4.046c-0.368-1.208-0.757-2.461-1.392-3.56
				c-0.226-0.392-0.509-0.75-0.816-1.084c0.421-0.454-0.287-1.138-0.777-0.702c-3.904,3.481-7.67,7.116-11.284,10.898
				c-1.807,1.891-3.576,3.818-5.305,5.78c-0.88,0.999-1.751,2.007-2.61,3.023c-0.73,0.864-1.45,1.743-2.281,2.514
				c-0.84,0.78-1.807,1.424-2.928,1.71c-1.12,0.286-2.303,0.213-3.414-0.077c-2.35-0.614-4.258-2.173-5.961-3.839
				c-1.767-1.73-3.46-3.533-5.242-5.25c-1.798-1.733-3.639-3.421-5.519-5.064c-3.76-3.285-7.68-6.389-11.738-9.298
				c-2.029-1.455-4.094-2.861-6.191-4.216c-1.049-0.677-2.106-1.342-3.171-1.994c-0.964-0.59-2.017-1.11-2.905-1.813
				c-0.816-0.645-1.309-1.511-0.937-2.554c0.391-1.094,1.366-1.927,2.168-2.72c1.891-1.869,3.798-3.722,5.721-5.558
				c3.811-3.639,7.684-7.214,11.616-10.722c3.932-3.508,7.924-6.95,11.97-10.325c4.047-3.375,8.188-6.628,12.284-9.943
				c0.839-0.679,1.688-1.348,2.536-2.016c0.073,0.208,0.257,0.325,0.454,0.347c0.564,1.032,1.531,1.794,2.561,2.389
				c1.565,0.904,3.282,1.59,4.947,2.286c3.599,1.507,7.284,2.803,11.017,3.936c7.45,2.26,15.08,3.87,22.735,5.256
				c8.011,1.451,16.054,2.783,24.105,3.982c4.131,0.615,8.274,1.18,12.431,1.585c1.927,0.188,3.953,0.29,5.807-0.375
				c0.557-0.2,1.101-0.464,1.599-0.793C336.501,251.409,337.14,253.288,337.642,255.204z"/>
			<path style="fill:#020B2A;" d="M342.325,174.259c-0.415-0.119-0.825-0.253-1.23-0.402c-0.367-0.135-0.809-0.269-1.083-0.563
				c-0.226-0.243-0.299-0.581-0.363-0.897c-0.099-0.487-0.175-0.98-0.25-1.472c-0.144-0.945-0.259-1.894-0.349-2.845
				c0.016-0.166,0.027-0.332,0.044-0.499c0.012-0.115-0.038-0.218-0.109-0.305c-0.206-2.605-0.234-5.225-0.149-7.833
				c0.142-4.37,0.595-8.721,0.873-13.083c0.022-0.343-0.556-0.43-0.608-0.082c-1.078,7.174-1.773,14.556-1.094,21.811
				c-0.372,3.306-0.274,6.654-0.281,9.974c-0.003,1.727-0.03,3.456-0.15,5.179c-0.121,1.729-0.373,3.441-0.592,5.159
				c-0.444,3.488-0.429,7.006-0.429,10.517c0,3.507,0.06,7.014,0.18,10.518c0.068,1.994,0.158,3.987,0.275,5.978
				c0.058,0.985,0.127,1.97,0.198,2.954c0.035,0.482,0.082,0.963,0.131,1.444c0.029,0.286,0.079,0.565,0.129,0.845
				c-0.345,3.841-0.5,7.699-0.444,11.555c0.03,2.06,0.118,4.12,0.263,6.176c0.135,1.908,0.447,3.827,0.461,5.74
				c0.012,1.694-0.469,3.289-1.896,4.311c-1.433,1.027-3.201,1.288-4.926,1.256c-2.008-0.038-4.025-0.332-6.017-0.571
				c-2.063-0.247-4.123-0.521-6.18-0.815c-7.843-1.122-15.665-2.439-23.468-3.803c-7.46-1.305-14.903-2.773-22.204-4.8
				c-3.632-1.008-7.226-2.155-10.753-3.486c-1.797-0.678-3.573-1.406-5.33-2.18c-1.457-0.642-3.068-1.253-4.283-2.313
				c-0.464-0.405-0.851-0.883-1.102-1.442c-0.08-3.341,1.268-6.475,2.622-9.47c0.722-1.596,1.461-3.19,2.054-4.84
				c0.657-1.828,1.079-3.724,1.474-5.622c0.836-4.017,1.664-8.035,2.496-12.052c0.405-1.954,0.841-3.904,1.174-5.872
				c0.343-2.026,0.475-4.054,0.517-6.106c0.046-2.246,0.167-4.485,0.255-6.73c0.083-2.111,0.118-4.301-0.332-6.379
				c0.379-0.764-0.49-1.522-0.805-2.164c-0.381-0.776-0.475-1.677-0.558-2.526c-0.207-2.138-0.422-4.276-0.681-6.409
				c-0.516-4.255-1.139-8.496-1.904-12.713c-0.216-1.191-0.441-2.381-0.674-3.569c-0.234-1.192-0.531-2.355-0.84-3.528
				c-0.09-0.344-0.564-0.189-0.518,0.143c0.151,1.078,0.286,2.152,0.471,3.227c0.177,1.025,0.355,2.049,0.523,3.075
				c0.336,2.052,0.651,4.107,0.946,6.165c0.595,4.153,1.109,8.317,1.519,12.492c0.1,1.018,0.15,2.062,0.403,3.057
				c0.122,0.482,0.301,0.961,0.556,1.389l0.005,0.007l-0.108,0.008c-2.289,0.642-4.693,0.512-7.016,0.131
				c-2.095-0.343-4.23-0.766-6.238-1.466c-1.745-0.608-3.67-1.587-4.68-3.21c-0.304-0.489-0.363-0.965-0.225-1.523
				c0.138-0.56,0.332-1.107,0.491-1.662c0.33-1.155,0.621-2.32,0.88-3.492c1.047-4.73,1.584-9.553,2.176-14.355
				c0.591-4.801,1.289-9.58,2.479-14.274c0.597-2.356,1.288-4.69,2.078-6.989c0.608-1.766,1.17-3.876,2.62-5.165l0.102-0.082
				c0.485-0.22,0.944-0.494,1.425-0.731c0.548-0.27,1.099-0.536,1.645-0.809c1.112-0.555,2.23-1.096,3.352-1.631
				c2.224-1.06,4.471-2.074,6.74-3.033c2.267-0.959,4.558-1.863,6.863-2.727c2.219-0.832,4.405-1.703,6.481-2.855
				c2.075-1.152,4.023-2.524,5.831-4.061c-0.062,0.843-0.271,1.666-0.34,2.506c-0.105,0.059-0.181,0.162-0.173,0.313
				c0.149,2.812,1.67,5.622,3.716,7.519c2.144,1.989,5.111,3.137,8.046,2.927c1.612-0.115,3.124-0.661,4.59-1.311
				c1.303-0.578,2.571-1.235,3.795-1.965c2.451-1.461,4.737-3.212,6.789-5.194c2.306-2.228,4.322-4.759,5.975-7.506
				c0.176-0.292,0.035-0.57-0.194-0.702c-0.009-0.05-0.012-0.098-0.035-0.152c-0.038-0.089-0.076-0.178-0.113-0.267
				c0.364,0.293,0.743,0.568,1.125,0.821c0.969,0.642,1.995,1.198,3.023,1.739c2.208,1.161,4.463,2.235,6.749,3.233
				c4.558,1.99,9.245,3.683,14.027,5.051c1.283,0.367,2.581,0.682,3.857,1.07c0.607,0.184,1.212,0.388,1.791,0.648
				c0.267,0.12,0.522,0.258,0.776,0.4l-0.052,0.052c-3.711,4.864-5.47,10.829-6.614,16.755c-0.324,1.676-0.61,3.349-0.808,5.044
				c-0.035,0.304,0.454,0.359,0.527,0.071c0.746-2.919,1.285-5.885,2.082-8.793c0.775-2.83,1.72-5.638,3.046-8.261
				c0.727-1.438,1.573-2.812,2.539-4.102c3.38,1.497,5.286,4.936,6.986,8.029c1.989,3.618,3.736,7.372,5.246,11.215
				c1.523,3.875,2.813,7.839,3.909,11.855c1.094,4.007,1.994,8.066,2.739,12.152c0.37,2.028,0.742,4.067,0.995,6.113
				c0.2,1.62,0.214,3.669-1.162,4.785c-0.282-0.212-0.771-0.095-0.792,0.371l-0.023,0.089c-0.175,0.061-0.357,0.105-0.544,0.132
				c-0.321,0.046-0.408,0.375-0.323,0.641c-0.238,0.127-0.48,0.246-0.718,0.365c-0.822,0.412-1.646,0.818-2.476,1.212
				c-1.672,0.794-3.369,1.54-5.108,2.177c-3.372,1.234-6.911,2.063-10.519,2.024C345.769,174.971,344.017,174.745,342.325,174.259z"
				/>
			<path style="fill:#020B2A;" d="M373.173,212.284c-0.542,4.973-1.205,9.932-1.71,14.91c-0.252,2.484-0.481,4.97-0.682,7.458
				c-0.201,2.482-0.438,4.979-0.487,7.47c-0.01,0.488-0.025,0.976-0.04,1.464c-0.077,0.467-0.139,0.938-0.216,1.392
				c-0.161,0.957-0.312,1.917-0.451,2.877c-0.283,1.946-0.526,3.898-0.717,5.855c-0.378,3.864-0.578,7.745-0.583,11.628
				c-0.001,1.079,0.011,2.157,0.036,3.236c0.013,0.561,0.038,1.122,0.064,1.682c0.023,0.495,0.077,1.009-0.04,1.495
				c-0.012,0.051-0.01,0.096-0.002,0.138c-0.113,0.519-0.173,1.06-0.27,1.578c-0.113,0.6-0.237,1.199-0.382,1.792
				c-0.288,1.18-0.656,2.351-1.199,3.44c-0.465,0.934-1.046,1.807-1.762,2.567c-0.341,0.362-0.711,0.697-1.112,0.991
				c-0.233,0.171-0.478,0.328-0.72,0.488c0.35-0.76,0.666-1.537,0.996-2.285c0.527-1.195,1.084-2.382,1.577-3.591
				c0.2-0.491-0.633-0.844-0.861-0.363c-0.598,1.262-1.13,2.558-1.692,3.836c-0.473,1.075-0.916,2.175-1.489,3.202
				c-0.521,0.933-1.181,1.814-2.107,2.378c-0.719,0.437-1.487,0.608-2.286,0.682c0.72-0.612,1.306-1.348,1.77-2.197
				c0.662-1.212,1.149-2.525,1.687-3.794c0.324-0.764,0.645-1.53,0.964-2.296c0.168-0.404,0.337-0.808,0.505-1.213
				c0.163-0.392,0.361-0.782,0.38-1.212c0.014-0.314-0.408-0.481-0.621-0.257c-0.429,0.452-0.621,1.152-0.865,1.716
				c-0.26,0.603-0.523,1.205-0.781,1.809c-0.492,1.149-0.967,2.306-1.47,3.45c-0.443,1.008-0.941,2.029-1.715,2.829
				c-0.767,0.793-1.755,1.314-2.746,1.771c-0.567,0.262-1.192,0.621-1.818,0.702c-0.392,0.05-1.081-0.192-0.952-0.718
				c0.027-0.111,0.001-0.212-0.052-0.294c2.029-1.396,4.007-2.898,5.21-5.102c0.704-1.29,1.177-2.692,1.658-4.077
				c0.536-1.545,1.085-3.085,1.604-4.636c0.196-0.586-0.714-0.826-0.92-0.254c-0.459,1.276-0.894,2.56-1.34,3.84
				c-0.408,1.174-0.788,2.366-1.288,3.505c-0.481,1.098-1.078,2.138-1.895,3.021c-0.809,0.876-1.755,1.605-2.723,2.295
				c-0.916,0.653-1.906,1.503-3.048,1.694c-0.746,0.125-1.859-0.262-1.884-1.155c-0.015-0.546,0.384-1.044,0.706-1.447
				c0.362-0.452,0.722-0.906,1.061-1.375c0.694-0.958,1.32-1.967,1.875-3.011c0.616-1.158,1.145-2.365,1.58-3.602
				c0.224-0.638,0.423-1.285,0.595-1.939c0.167-0.634,0.255-1.255,0.329-1.903c0.277-0.576,0.529-1.163,0.677-1.773
				c0.112-0.463-0.466-0.657-0.729-0.307c-0.569,0.76-0.917,1.669-1.32,2.526l-1.164,2.467c-0.367,0.779-0.714,1.573-1.114,2.336
				c-0.327,0.622-0.74,1.262-1.414,1.546c-0.586,0.247-1.214,0.111-1.556-0.442c-0.319-0.517-0.354-1.143-0.212-1.722
				c0.189-0.767,0.595-1.449,0.946-2.149c0.377-0.75,0.705-1.527,0.978-2.321c0.56-1.623,0.852-3.307,0.984-5.015
				c0.126-1.632,0.131-3.281,0.384-4.902c0.256-1.643,0.811-3.126,1.717-4.52c0.853-1.314,1.869-2.514,2.684-3.853
				c1.025-1.684,1.727-3.548,2.479-5.363c0.714-1.722,1.448-3.439,2.084-5.192c0.247-0.194,0.353-0.494,0.349-0.816
				c-0.014-1.163-0.189-2.336-0.332-3.489c-0.286-2.301-0.663-4.59-1.085-6.87c-0.854-4.622-1.89-9.207-2.772-13.824
				c-0.87-4.555-1.588-9.151-1.794-13.79c-0.105-2.359-0.042-4.708,0.105-7.063c0.076-1.204,0.141-2.412,0.06-3.618
				c-0.08-1.188-0.318-2.354-0.652-3.495c-0.685-2.336-1.588-4.618-2.405-6.911c-0.839-2.352-1.677-4.704-2.516-7.056l-0.4-1.123
				c3.678,0.154,7.347-0.586,10.809-1.789c2.046-0.711,4.038-1.575,5.994-2.503c0.522-0.247,1.037-0.508,1.555-0.764
				c0.008,0.056,0.016,0.113,0.044,0.171c2.017,4.154,3.919,8.372,5.423,12.742c1.514,4.398,2.624,8.949,2.999,13.593
				C374.052,202.406,373.709,207.369,373.173,212.284z"/>
		</g>
		<g>
			<path style="fill:#020B2A;" d="M139.8,432.977c0.021-0.866,0.099-1.751,0.055-2.619c0.835-0.049,1.537-0.81,2.142-1.304
				c0.819-0.669,1.634-1.342,2.451-2.013c1.649-1.357,3.297-2.714,4.941-4.077c0.743-0.616,1.569-1.197,2.215-1.919
				c0.195-0.218,0.351-0.449,0.482-0.689c0.289,0.138,0.573,0.275,0.884,0.38c0.374,0.127,0.751,0.244,1.127,0.363
				c0.772,0.244,1.542,0.496,2.309,0.755c1.42,0.48,2.834,0.979,4.221,1.549c-0.125,2.514-0.148,5.036-0.11,7.552
				c0.02,1.311,0.058,2.621,0.129,3.93c0.036,0.655,0.071,1.31,0.126,1.963c0.028,0.338,0.054,0.676,0.091,1.013
				c0.024,0.225,0.07,0.426,0.125,0.627c-0.338,0.193-0.628,0.549-0.9,0.798c-0.362,0.332-0.725,0.662-1.089,0.991
				c-0.743,0.672-1.493,1.336-2.25,1.992c-1.297,1.125-2.635,2.208-3.907,3.361c-0.405-0.229-0.924-0.352-1.337-0.501
				c-0.559-0.202-1.118-0.404-1.677-0.605c-1.118-0.404-2.236-0.807-3.354-1.211c-1.118-0.403-2.237-0.804-3.356-1.203
				c-1.044-0.372-2.086-0.781-3.152-1.091c-0.107-1.711-0.177-3.424-0.19-5.138C139.769,434.912,139.776,433.944,139.8,432.977z"/>
			<path style="fill:#020B2A;" d="M157.393,442.998c0.747-0.638,1.487-1.283,2.221-1.935c0.367-0.326,0.732-0.654,1.094-0.985
				c0.191-0.174,0.424-0.35,0.628-0.546c0.252,0.285,0.704,0.429,1.029,0.573c0.489,0.217,0.982,0.427,1.478,0.629
				c0.993,0.404,1.996,0.779,3.011,1.124c2.027,0.69,4.091,1.274,6.179,1.749c0.599,0.136,1.201,0.264,1.804,0.382
				c0.525,0.103,1.071,0.232,1.61,0.279c-0.011,0.375,0.071,0.755,0.14,1.121c0.079,0.418,0.168,0.833,0.252,1.25
				c0.173,0.854,0.345,1.708,0.517,2.562c0.337,1.669,0.704,3.333,1.058,4.999c-1.392,0.423-2.419,1.658-3.46,2.632
				c-1.327,1.242-2.657,2.481-3.981,3.726c-0.739,0.695-1.476,1.392-2.214,2.088c-0.61,0.575-1.246,1.144-1.799,1.778
				c-0.222-0.132-0.496-0.171-0.744-0.231c-0.237-0.057-0.473-0.116-0.71-0.176c-0.492-0.124-0.983-0.253-1.473-0.388
				c-0.999-0.274-1.992-0.568-2.979-0.883c-0.967-0.309-1.928-0.636-2.884-0.978c-0.497-0.178-0.99-0.366-1.486-0.546
				c-0.212-0.077-0.463-0.199-0.718-0.284c0.005-0.123-0.034-0.247-0.117-0.334c-0.542-2.388-1.012-4.791-1.403-7.208
				c-0.199-1.23-0.381-2.464-0.55-3.699c-0.085-0.617-0.163-1.236-0.241-1.854c-0.069-0.543-0.099-1.11-0.267-1.633
				C154.782,445.219,156.094,444.107,157.393,442.998z"/>
			<path style="fill:#020B2A;" d="M161.657,438.498c0.03-0.207,0.053-0.412,0.048-0.638c-0.009-0.338-0.025-0.675-0.036-1.013
				c-0.021-0.633-0.051-1.266-0.072-1.9c-0.044-1.331-0.081-2.662-0.095-3.993c-0.028-2.565,0.039-5.126,0.143-7.688
				c0.493-0.128,0.98-0.362,1.447-0.54c0.575-0.22,1.151-0.436,1.729-0.648c1.117-0.411,2.242-0.799,3.365-1.194
				c2.236-0.786,4.494-1.513,6.764-2.196c0.22,0.283,0.479,0.538,0.719,0.8c0.364,0.396,0.722,0.797,1.077,1.201
				c0.683,0.78,1.35,1.576,1.998,2.386c1.307,1.633,2.539,3.327,3.703,5.065c0.624,0.933,1.224,1.882,1.804,2.843
				c-1.184,2.16-2.419,4.291-3.701,6.394c-0.664,1.088-1.342,2.168-2.033,3.239c-0.579,0.897-1.209,1.781-1.737,2.714
				c-0.483-0.14-1.002-0.192-1.496-0.286c-0.526-0.1-1.051-0.205-1.575-0.318c-1.028-0.221-2.049-0.469-3.064-0.742
				c-2.029-0.547-4.028-1.202-5.995-1.943c-0.538-0.202-1.072-0.413-1.605-0.626c-0.275-0.11-0.548-0.227-0.825-0.333
				c-0.141-0.054-0.293-0.117-0.447-0.149c0.001-0.003,0.003-0.006,0.004-0.009C161.833,438.763,161.771,438.605,161.657,438.498z"
				/>
			<path style="fill:#020B2A;" d="M178.278,448.946c-0.19-0.827-0.379-1.655-0.569-2.482c-0.095-0.413-0.186-0.828-0.284-1.241
				c-0.086-0.363-0.171-0.734-0.329-1.073c0.809-0.908,1.47-1.961,2.14-2.97c0.716-1.079,1.419-2.168,2.107-3.266
				c1.338-2.134,2.612-4.309,3.836-6.511c1.029,0.416,2.089,0.743,3.158,1.048c1.247,0.356,2.505,0.677,3.775,0.941
				c0.075,0.365,0.165,0.726,0.253,1.088c0.15,0.617,0.302,1.233,0.44,1.852c0.271,1.219,0.506,2.447,0.711,3.679
				c0.413,2.485,0.672,4.995,0.781,7.512c0.015,0.348,0.026,0.695,0.038,1.043c0.004,0.115,0.001,0.239,0.003,0.364
				c-0.256,0.207-0.455,0.482-0.665,0.735c-0.232,0.279-0.462,0.56-0.691,0.842c-0.469,0.578-0.93,1.162-1.385,1.751
				c-0.443,0.573-0.879,1.151-1.309,1.733c-0.215,0.292-0.424,0.589-0.633,0.885c-0.115,0.163-0.243,0.326-0.341,0.502
				c-0.335-0.066-0.679-0.101-1.016-0.149l-1.39-0.199c-0.884-0.127-1.769-0.254-2.653-0.381c-0.926-0.133-1.853-0.266-2.779-0.399
				c-0.689-0.099-1.392-0.218-2.092-0.195c-0.002-0.024,0.004-0.045-0.001-0.07C179.016,452.306,178.662,450.622,178.278,448.946z"
				/>
			<path style="fill:#020B2A;" d="M190.237,456.557c-0.026-0.238-0.04-0.509-0.232-0.675c-0.003-0.003-0.007-0.004-0.01-0.006
				c-0.001-0.02-0.007-0.039-0.011-0.058c0.098-0.115,0.185-0.244,0.281-0.375c0.215-0.293,0.433-0.584,0.649-0.876
				c0.432-0.584,0.866-1.166,1.309-1.741c0.433-0.562,0.874-1.119,1.321-1.671c0.228-0.282,0.459-0.563,0.69-0.843
				c0.145-0.176,0.317-0.354,0.468-0.541c0.29,0.2,0.687,0.19,0.974-0.046c-1.22,3.658-3.095,7.02-5.498,9.934
				c0.031-0.309,0.057-0.619,0.072-0.929c0.024-0.472,0.031-0.944,0.023-1.417C190.269,457.06,190.264,456.808,190.237,456.557z"/>
			<path style="fill:#020B2A;" d="M195.288,449.015c-0.001-0.072-0.002-0.153-0.002-0.143c-0.008-0.286-0.019-0.573-0.033-0.859
				c-0.028-0.572-0.063-1.145-0.107-1.716c-0.085-1.123-0.201-2.244-0.346-3.361c-0.295-2.27-0.704-4.522-1.25-6.746
				c-0.151-0.616-0.307-1.231-0.482-1.841c-0.122-0.427-0.251-0.858-0.415-1.273c0.024-0.081,0.022-0.164,0.002-0.242
				c0.233-0.397,0.374-0.865,0.523-1.286c0.212-0.596,0.415-1.194,0.606-1.797c0.185-0.583,0.362-1.169,0.531-1.757
				c0.075-0.262,0.148-0.525,0.221-0.788c1.751,3.885,2.734,8.187,2.734,12.717c0,3.25-0.504,6.385-1.434,9.332
				C195.758,449.052,195.527,448.904,195.288,449.015z"/>
			<path style="fill:#020B2A;" d="M194.036,426.147c-0.141,0.228-0.19,0.482-0.263,0.748c-0.075,0.275-0.152,0.55-0.231,0.825
				c-0.169,0.588-0.346,1.174-0.531,1.757c-0.185,0.583-0.374,1.165-0.571,1.744c-0.138,0.406-0.337,0.836-0.432,1.269
				c-1.139-0.24-2.273-0.496-3.398-0.796c-1.114-0.297-2.213-0.647-3.326-0.945c-0.044-0.078-0.102-0.149-0.178-0.198
				c-2.173-3.591-4.666-6.976-7.453-10.116c-0.395-0.445-0.796-0.885-1.202-1.32c-0.319-0.342-0.635-0.716-1.005-1.012
				c-0.005-0.046-0.018-0.091-0.034-0.135c0.259-0.588,0.408-1.222,0.594-1.837c0.106-0.35,0.217-0.698,0.333-1.045
				c0.058-0.173,0.118-0.346,0.178-0.519c0.022-0.062,0.043-0.12,0.061-0.174c0.112,0.003,0.225,0.004,0.345-0.015
				c0.566-0.087,1.123-0.28,1.676-0.428c1.073-0.288,2.145-0.576,3.218-0.863C187.057,416.146,191.324,420.692,194.036,426.147z"/>
			<path style="fill:#020B2A;" d="M176.276,413.398c-0.216-0.104-0.391-0.3-0.563-0.461c-0.828-0.783-1.655-1.566-2.482-2.349
				c-0.418-0.395-0.837-0.789-1.257-1.181c3.044,0.574,5.931,1.593,8.593,2.987c-0.662,0.186-1.323,0.373-1.985,0.559
				c-0.518,0.146-1.034,0.302-1.555,0.437C176.773,413.456,176.524,413.517,176.276,413.398z"/>
			<path style="fill:#020B2A;" d="M170.558,409.172c0.255,0.326,0.584,0.605,0.874,0.889c0.451,0.443,0.905,0.885,1.359,1.325
				c0.857,0.832,1.685,1.722,2.589,2.503c0.136,0.117,0.276,0.209,0.42,0.288c-0.014,0.046-0.028,0.092-0.044,0.138
				c-0.062,0.185-0.123,0.372-0.182,0.558c-0.111,0.348-0.216,0.698-0.317,1.05c-0.162,0.566-0.335,1.149-0.392,1.739
				c-0.012,0.003-0.022,0.003-0.034,0.006c-2.344,0.691-4.668,1.45-6.972,2.267c-1.143,0.405-2.274,0.847-3.401,1.293
				c-0.574,0.227-1.146,0.457-1.717,0.691c-0.479,0.197-1.013,0.372-1.464,0.643c-0.103-0.02-0.213-0.011-0.313,0.026
				c-1.432-0.484-2.855-0.997-4.29-1.476c-0.748-0.25-1.499-0.492-2.252-0.728c-0.376-0.118-0.754-0.232-1.134-0.339
				c-0.327-0.092-0.646-0.139-0.971-0.184c0.163-0.42,0.265-0.867,0.342-1.335c0.392-2.363,0.791-4.724,1.174-7.088
				c3.793-1.654,7.975-2.576,12.37-2.576C167.683,408.861,169.135,408.971,170.558,409.172z"/>
			<path style="fill:#020B2A;" d="M152.766,411.921c-0.282,1.744-0.557,3.49-0.835,5.235c-0.14,0.882-0.19,1.922-0.633,2.717
				c-0.428,0.769-1.229,1.308-1.892,1.858c-1.528,1.269-3.055,2.539-4.579,3.813c-0.778,0.651-1.556,1.301-2.334,1.952
				c-0.389,0.325-0.777,0.651-1.165,0.978c-0.352,0.296-0.695,0.637-1.086,0.882c-0.689,0.431-1.15-0.001-1.617-0.51
				c-0.322-0.351-0.646-0.727-1.056-0.959C140.519,420.896,145.956,415.202,152.766,411.921z"/>
			<path style="fill:#020B2A;" d="M137.318,428.523c0.623,0.534,1.052,1.359,1.785,1.695c-0.149,0.863-0.154,1.76-0.182,2.632
				c-0.032,0.988-0.048,1.977-0.047,2.966c0.001,1.957,0.068,3.913,0.199,5.866c0.001,0.021,0.012,0.037,0.015,0.056
				c-0.072,0.204-0.129,0.416-0.193,0.611c-0.129,0.393-0.257,0.786-0.378,1.181c-0.243,0.79-0.466,1.586-0.683,2.383
				c-0.212,0.777-0.414,1.557-0.605,2.34c-0.098,0.401-0.194,0.803-0.287,1.206c-0.035,0.153-0.087,0.32-0.131,0.489
				c-1.076-3.147-1.669-6.517-1.669-10.024C135.141,435.9,135.918,432.056,137.318,428.523z"/>
			<path style="fill:#020B2A;" d="M137.199,451.026c0.094-0.003,0.187-0.038,0.258-0.12c0.267-0.307,0.29-0.747,0.378-1.135
				c0.091-0.403,0.185-0.805,0.281-1.207c0.193-0.804,0.396-1.605,0.609-2.403c0.208-0.779,0.43-1.553,0.654-2.327
				c0.115-0.397,0.227-0.794,0.345-1.19c0.067-0.227,0.15-0.462,0.213-0.699c0.921,0.384,1.87,0.708,2.805,1.053
				c1.116,0.411,2.232,0.821,3.35,1.227c1.117,0.406,2.235,0.812,3.352,1.219c0.559,0.203,1.117,0.406,1.676,0.609l0.778,0.283
				c0.09,0.033,0.181,0.068,0.272,0.103c0.032,0.215,0.258,0.4,0.482,0.283c0.004,0.418,0.065,0.84,0.103,1.247
				c0.059,0.62,0.129,1.239,0.202,1.858c0.149,1.262,0.326,2.519,0.525,3.773c0.382,2.399,0.842,4.784,1.373,7.155
				c-0.597,0.241-1.185,0.505-1.785,0.736c-0.827,0.318-1.659,0.621-2.501,0.894c-0.824,0.267-1.656,0.509-2.496,0.723
				c-0.42,0.107-0.841,0.209-1.263,0.304c-0.216,0.049-0.494,0.072-0.736,0.146C142.156,460.212,139.077,455.916,137.199,451.026z"
				/>
			<path style="fill:#020B2A;" d="M147.088,464.384c0.401-0.089,0.801-0.183,1.198-0.286c0.858-0.222,1.708-0.472,2.55-0.749
				c0.842-0.277,1.676-0.58,2.494-0.921c0.644-0.268,1.295-0.545,1.918-0.868c0.292,0.251,0.755,0.377,1.078,0.512
				c0.488,0.204,0.982,0.392,1.477,0.577c0.99,0.37,1.988,0.716,2.993,1.038c1.006,0.323,2.018,0.624,3.036,0.904
				c0.509,0.14,1.02,0.275,1.532,0.404c0.41,0.104,0.866,0.265,1.3,0.272c0.097,0.074,0.229,0.104,0.34,0.033
				c0.02-0.013,0.039-0.029,0.059-0.042c0.09,0.185,0.209,0.36,0.316,0.532c0.168,0.268,0.333,0.538,0.499,0.807
				c0.323,0.522,0.648,1.041,0.966,1.565c0.318,0.525,0.635,1.05,0.947,1.578c0.161,0.273,0.321,0.546,0.48,0.82
				c0.028,0.048,0.053,0.096,0.08,0.144c-1.357,0.182-2.739,0.285-4.145,0.285C158.999,470.989,152.364,468.516,147.088,464.384z"/>
			<path style="fill:#020B2A;" d="M171.363,470.553c-0.074-0.163-0.175-0.316-0.268-0.475c-0.16-0.273-0.321-0.546-0.483-0.818
				c-0.324-0.544-0.653-1.085-0.99-1.621c-0.337-0.536-0.675-1.072-1.027-1.599c-0.269-0.402-0.536-0.896-0.889-1.256
				c0.456-0.366,0.887-0.769,1.315-1.161c0.655-0.6,1.31-1.199,1.965-1.799c1.31-1.199,2.613-2.405,3.918-3.609
				c0.637-0.588,1.274-1.175,1.911-1.763c0.531-0.49,1.068-1.065,1.778-1.286c0.763-0.237,1.592-0.105,2.366,0.006
				c0.884,0.126,1.769,0.253,2.654,0.379c0.969,0.138,1.938,0.277,2.906,0.415l1.516,0.217c0.459,0.066,0.925,0.157,1.389,0.173
				c-0.005,0.066-0.008,0.133-0.01,0.201c-0.008,0.252-0.002,0.504-0.006,0.756c-0.007,0.473-0.03,0.945-0.07,1.417
				c-0.038,0.461-0.095,0.92-0.157,1.378c-0.023,0.173-0.084,0.494-0.055,0.76C184.544,465.878,178.344,469.381,171.363,470.553z"/>
		</g>
	</g>
</g>
</svg>
